<svg width="1065" height="441" viewBox="0 0 1065 441" fill="none" xmlns="http://www.w3.org/2000/svg">
<path d="M348.347 342.968C341.21 349.835 334.975 357.298 332.742 364.044C348.43 372.449 368.613 372.039 384.878 360.01C395.84 351.903 404.54 339.362 411.175 325.32C416.106 314.884 419.875 303.628 422.592 292.726C418.721 294.394 413.873 296.957 408.718 299.901C394.509 308.035 378.421 318.974 372.847 323.018C366.696 327.482 356.879 334.777 348.365 342.977L348.347 342.968ZM593.49 85.2854V148.134H629.38C651.396 148.134 664.106 134.716 664.106 116.64C664.106 98.4979 651.386 85.2854 629.38 85.2854H593.49ZM432.93 142.776C431.413 126.46 428.929 110.769 425.086 97.5382C414.059 108.477 389.243 143.4 368.176 173.049C356.907 188.908 346.7 203.276 340.037 211.886C335.561 217.672 330.202 222.918 325.205 227.8C323.52 229.45 321.883 231.052 319.864 233.121H319.845C309.246 243.967 293.93 251.84 277.935 254.244C265.875 256.061 253.378 254.803 242.119 249.427C230.851 244.05 220.885 234.584 213.915 220.011C204.722 200.77 200.795 172.518 206.248 132.834C208.388 117.236 215.916 84.0088 224.188 54.7511C225.128 51.434 226.077 48.1728 227.026 44.9861L154.847 154.293L255.351 302.575H161.481L79.168 175.509V302.575H0V15.0388H79.168V136.216L155.061 15.0388H237.197C239.337 9.72773 241.384 5.47884 243.227 2.70215L245.022 0L309.125 24.6082L308.632 27.8135C307.655 34.1961 303.794 44.5761 300.36 53.81C298.862 57.8446 297.448 61.6462 296.312 65.0938C292.106 77.8777 281.452 116.071 276.446 145.888C273.533 163.247 272.37 177.335 275.348 180.485C275.646 180.792 275.869 181.1 276.055 181.398C275.757 180.121 274.994 177.233 277.125 174.717L301.011 144.975C306.213 137.791 312.568 128.529 319.361 118.634C333.84 97.5289 350.291 73.545 361.374 61.2456L361.364 61.2362L365.403 56.7451C375.48 45.452 383.669 36.2647 398.715 26.8444C407.806 21.1513 418.805 17.0608 430.045 16.3247C439.853 15.6818 449.828 17.5826 458.91 23.1639C466.968 28.1116 473.007 34.2055 477.976 41.6317C482.843 48.9089 486.63 57.388 490.277 67.3114C496.242 83.5523 500.383 103.269 503.035 123.777C505.947 146.298 507.064 169.779 506.85 190.613C508.869 190.576 511.428 190.38 514.341 190.082V15.0295H638.629C700.369 15.0295 745.21 56.5867 745.21 116.835C745.21 152.364 728.051 181.193 699.68 198.095L756.702 302.566H668.368L622.01 214.662H593.499V302.566H514.331V262.006C509.26 262.816 504.682 263.813 501.109 265.109C500.867 266.245 500.215 270.084 499.052 275.852C490.948 315.918 467.666 431.048 370.148 440.068C350.887 441.848 330.769 439.481 313.127 433.266C299.048 428.309 286.495 420.901 277.107 411.183C267.541 401.287 261.251 389.035 259.92 374.583C259.036 365.023 260.339 354.54 264.321 343.21C267.894 333.026 274.315 321.807 281.759 311.436C289.938 300.032 299.43 289.577 307.786 282.607C326.219 267.214 348.793 251.29 372.791 237.714C392.937 226.309 414.087 216.554 434.624 210.134C435.275 189.793 435.061 165.679 432.939 142.776H432.93ZM906.896 309.843C998.989 309.843 1064.55 246.93 1064.55 158.821C1064.55 70.7124 998.989 7.79896 906.896 7.79896C814.598 7.79896 748.764 70.9174 748.764 158.821C748.764 246.725 814.598 309.843 906.896 309.843ZM906.896 236.177C863.208 236.177 831.078 203.593 831.078 158.821C831.078 114.049 863.208 81.4558 906.896 81.4558C950.583 81.4558 982.239 113.835 982.239 158.821C982.239 203.872 950.583 236.177 906.896 236.177Z" fill="#D4D93E"/>
<path d="M1047.69 3.19284C1039.91 3.19284 1033.58 9.52416 1033.58 17.3062C1033.58 25.0884 1039.91 31.4197 1047.69 31.4197C1055.48 31.4197 1061.81 25.0884 1061.81 17.3062C1061.81 9.52416 1055.48 3.19284 1047.69 3.19284ZM1044.99 16.5348H1047.03C1049.36 16.5348 1050.82 15.3005 1050.82 13.4209C1050.82 11.345 1049.36 10.3911 1047.12 10.3911C1046.02 10.3911 1045.32 10.4753 1044.99 10.5594V16.5348ZM1041.56 8.17477C1042.85 7.95054 1044.79 7.78207 1046.78 7.78207C1049.5 7.78207 1051.35 8.23112 1052.62 9.29709C1053.66 10.1667 1054.24 11.4853 1054.24 13.0842C1054.24 15.5248 1052.59 17.18 1050.82 17.8253V17.9095C1052.17 18.4144 1052.98 19.7329 1053.46 21.5564C1054.05 23.9128 1054.55 26.101 1054.95 26.8304H1051.38C1051.1 26.2692 1050.65 24.7263 1050.12 22.3699C1049.59 19.9012 1048.69 19.1156 1046.73 19.0596H1044.99V26.8304H1041.56V8.17477ZM1047.69 34.6125C1043.07 34.6125 1038.73 32.8124 1035.46 29.5436C1032.19 26.2749 1030.39 21.929 1030.39 17.3062C1030.39 12.6835 1032.19 8.33758 1035.46 5.06885C1038.73 1.80013 1043.07 0 1047.69 0C1052.32 0 1056.66 1.80013 1059.93 5.06885C1063.2 8.33758 1065 12.6835 1065 17.3062C1065 21.929 1063.2 26.2749 1059.93 29.5436C1056.66 32.8124 1052.32 34.6125 1047.69 34.6125Z" fill="#D4D93E"/>
</svg>
